<svg width="81" height="91" viewBox="0 0 81 91" fill="none" xmlns="http://www.w3.org/2000/svg">
<path d="M3 78V12.375C3 7.19733 7.19733 3 12.375 3H75.1875C76.7409 3 78 4.2592 78 5.8125V67.2858" stroke="#002A3D" stroke-width="6" stroke-linecap="round"/>
<path d="M59.25 30.0926C59.25 32.9118 58.1367 35.6195 56.1483 37.6223C51.5714 42.2348 47.1328 47.0442 42.3848 51.4889C41.2969 52.493 39.5705 52.4564 38.5289 51.4069L24.8508 37.6223C20.7164 33.4559 20.7164 26.7293 24.8508 22.5628C29.0258 18.3553 35.8275 18.3553 40.0022 22.5628L40.4995 23.0638L40.9964 22.563C42.9984 20.5447 45.7247 19.4062 48.5723 19.4062C51.4205 19.4062 54.1467 20.5446 56.1483 22.5628C58.1367 24.5659 59.25 27.2735 59.25 30.0926Z" stroke="#002A3D" stroke-width="6" stroke-linejoin="round"/>
<path d="M12.375 68.625H78" stroke="#002A3D" stroke-width="6" stroke-linecap="round"/>
<path d="M12.375 87.375H78" stroke="#002A3D" stroke-width="6" stroke-linecap="round"/>
<path d="M12.375 87.375C7.19733 87.375 3 83.1778 3 78C3 72.8222 7.19733 68.625 12.375 68.625" stroke="#002A3D" stroke-width="6" stroke-linecap="round" stroke-linejoin="round"/>
</svg>
