<svg width="350" height="350" viewBox="0 0 350 350" fill="none" xmlns="http://www.w3.org/2000/svg">
<path d="M175 80.0626V298.813M113.021 123.813H80.2087M123.959 167.563H80.2087M320.834 244.125V68.1043C320.834 50.6043 306.542 37.6251 289.188 39.0834H288.313C257.688 41.7084 211.167 57.3126 185.209 73.6459L182.729 75.2501C178.5 77.8751 171.5 77.8751 167.271 75.2501L163.625 73.0626C137.667 56.8751 91.292 41.4168 60.667 38.9376C43.3128 37.4793 29.167 50.6043 29.167 67.9584V244.125C29.167 258.125 40.542 271.25 54.542 273L58.7712 273.583C90.417 277.813 139.271 293.854 167.271 309.167L167.855 309.458C171.792 311.646 178.063 311.646 181.855 309.458C209.855 294 258.855 277.813 290.646 273.583L295.459 273C309.459 271.25 320.834 258.125 320.834 244.125Z" stroke="#FEF5EA" stroke-width="16" stroke-linecap="round" stroke-linejoin="round"/>
</svg>
