<svg width="81" height="81" viewBox="0 0 81 81" fill="none" xmlns="http://www.w3.org/2000/svg">
<path d="M32.1667 28H15.5" stroke="#002A3D" stroke-width="6" stroke-linecap="round" stroke-linejoin="round"/>
<path d="M55.0827 36.3333C49.3298 36.3333 44.666 31.6696 44.666 25.9167C44.666 20.1637 49.3298 15.5 55.0827 15.5C60.8356 15.5 65.4994 20.1637 65.4994 25.9167C65.4994 31.6696 60.8356 36.3333 55.0827 36.3333Z" stroke="#002A3D" stroke-width="6" stroke-linecap="round" stroke-linejoin="round"/>
<path d="M15.5 15.5H28" stroke="#002A3D" stroke-width="6" stroke-linecap="round" stroke-linejoin="round"/>
<path d="M65.5 65.4998L46.75 52.9998L36.3333 61.3332L15.5 44.6665" stroke="#002A3D" stroke-width="6" stroke-linecap="round" stroke-linejoin="round"/>
<path d="M3 75.5V5.5C3 4.11929 4.11929 3 5.5 3H75.5C76.8808 3 78 4.11929 78 5.5V75.5C78 76.8808 76.8808 78 75.5 78H5.5C4.11929 78 3 76.8808 3 75.5Z" stroke="#002A3D" stroke-width="6"/>
</svg>
