<svg width="78" height="78" viewBox="0 0 78 78" fill="none" xmlns="http://www.w3.org/2000/svg">
<path d="M55.25 68.25V61.75C55.25 58.3022 53.8804 54.9956 51.4424 52.5576C49.0044 50.1196 45.6978 48.75 42.25 48.75H16.25C12.8022 48.75 9.49558 50.1196 7.05761 52.5576C4.61964 54.9956 3.25 58.3022 3.25 61.75V68.25M74.75 68.25V61.75C74.7479 58.8696 73.7892 56.0715 72.0244 53.795C70.2597 51.5185 67.7889 49.8926 65 49.1725M52 10.1725C54.7963 10.8885 57.2749 12.5148 59.0448 14.795C60.8148 17.0752 61.7755 19.8797 61.7755 22.7663C61.7755 25.6528 60.8148 28.4573 59.0448 30.7375C57.2749 33.0177 54.7963 34.644 52 35.36M42.25 22.75C42.25 29.9297 36.4297 35.75 29.25 35.75C22.0703 35.75 16.25 29.9297 16.25 22.75C16.25 15.5703 22.0703 9.75 29.25 9.75C36.4297 9.75 42.25 15.5703 42.25 22.75Z" stroke="#002A3D" stroke-width="6" stroke-linecap="round" stroke-linejoin="round"/>
</svg>
